<svg id="visual" viewBox="0 0 2160 3840" width="2160" height="3840" xmlns="http://www.w3.org/2000/svg" xmlns:xlink="http://www.w3.org/1999/xlink" version="1.1"><rect x="0" y="0" width="2160" height="3840" fill="#ffffff"></rect><defs><linearGradient id="grad1_0" x1="0%" y1="0%" x2="100%" y2="100%"><stop offset="30%" stop-color="#6777c7" stop-opacity="1"></stop><stop offset="70%" stop-color="#6777c7" stop-opacity="1"></stop></linearGradient></defs><defs><linearGradient id="grad1_1" x1="0%" y1="0%" x2="100%" y2="100%"><stop offset="30%" stop-color="#6777c7" stop-opacity="1"></stop><stop offset="70%" stop-color="#9097d5" stop-opacity="1"></stop></linearGradient></defs><defs><linearGradient id="grad1_2" x1="0%" y1="0%" x2="100%" y2="100%"><stop offset="30%" stop-color="#b6b8e3" stop-opacity="1"></stop><stop offset="70%" stop-color="#9097d5" stop-opacity="1"></stop></linearGradient></defs><defs><linearGradient id="grad1_3" x1="0%" y1="0%" x2="100%" y2="100%"><stop offset="30%" stop-color="#b6b8e3" stop-opacity="1"></stop><stop offset="70%" stop-color="#dbdbf1" stop-opacity="1"></stop></linearGradient></defs><defs><linearGradient id="grad1_4" x1="0%" y1="0%" x2="100%" y2="100%"><stop offset="30%" stop-color="#ffffff" stop-opacity="1"></stop><stop offset="70%" stop-color="#dbdbf1" stop-opacity="1"></stop></linearGradient></defs><defs><linearGradient id="grad2_0" x1="0%" y1="0%" x2="100%" y2="100%"><stop offset="30%" stop-color="#6777c7" stop-opacity="1"></stop><stop offset="70%" stop-color="#6777c7" stop-opacity="1"></stop></linearGradient></defs><defs><linearGradient id="grad2_1" x1="0%" y1="0%" x2="100%" y2="100%"><stop offset="30%" stop-color="#9097d5" stop-opacity="1"></stop><stop offset="70%" stop-color="#6777c7" stop-opacity="1"></stop></linearGradient></defs><defs><linearGradient id="grad2_2" x1="0%" y1="0%" x2="100%" y2="100%"><stop offset="30%" stop-color="#9097d5" stop-opacity="1"></stop><stop offset="70%" stop-color="#b6b8e3" stop-opacity="1"></stop></linearGradient></defs><defs><linearGradient id="grad2_3" x1="0%" y1="0%" x2="100%" y2="100%"><stop offset="30%" stop-color="#dbdbf1" stop-opacity="1"></stop><stop offset="70%" stop-color="#b6b8e3" stop-opacity="1"></stop></linearGradient></defs><defs><linearGradient id="grad2_4" x1="0%" y1="0%" x2="100%" y2="100%"><stop offset="30%" stop-color="#dbdbf1" stop-opacity="1"></stop><stop offset="70%" stop-color="#ffffff" stop-opacity="1"></stop></linearGradient></defs><g transform="translate(2160, 0)"><path d="M0 2160C-140.5 1965.6 -281 1771.3 -466.9 1742.5C-652.9 1713.8 -884.3 1850.7 -1046.5 1812.6C-1208.7 1774.4 -1301.6 1561.2 -1398 1398C-1494.3 1234.7 -1593.9 1121.4 -1722.5 994.5C-1851.1 867.6 -2008.7 727.1 -2086.4 559C-2164.1 391 -2162.1 195.5 -2160 0L0 0Z" fill="#ededf8"></path><path d="M0 1728C-112.4 1572.5 -224.8 1417 -373.5 1394C-522.3 1371 -707.4 1480.6 -837.2 1450.1C-967 1419.6 -1041.3 1249 -1118.4 1118.4C-1195.4 987.8 -1275.1 897.1 -1378 795.6C-1480.9 694.1 -1606.9 581.7 -1669.1 447.2C-1731.3 312.8 -1729.7 156.4 -1728 0L0 0Z" fill="#c8caea"></path><path d="M0 1296C-84.3 1179.4 -168.6 1062.8 -280.1 1045.5C-391.7 1028.3 -530.6 1110.4 -627.9 1087.6C-725.2 1064.7 -781 936.7 -838.8 838.8C-896.6 740.8 -956.4 672.8 -1033.5 596.7C-1110.7 520.6 -1205.2 436.2 -1251.8 335.4C-1298.5 234.6 -1297.2 117.3 -1296 0L0 0Z" fill="#a3a8dc"></path><path d="M0 864C-56.2 786.3 -112.4 708.5 -186.8 697C-261.1 685.5 -353.7 740.3 -418.6 725C-483.5 709.8 -520.7 624.5 -559.2 559.2C-597.7 493.9 -637.6 448.6 -689 397.8C-740.5 347 -803.5 290.8 -834.6 223.6C-865.7 156.4 -864.8 78.2 -864 0L0 0Z" fill="#7c87ce"></path><path d="M0 432C-28.1 393.1 -56.2 354.3 -93.4 348.5C-130.6 342.8 -176.9 370.1 -209.3 362.5C-241.7 354.9 -260.3 312.2 -279.6 279.6C-298.9 246.9 -318.8 224.3 -344.5 198.9C-370.2 173.5 -401.7 145.4 -417.3 111.8C-432.8 78.2 -432.4 39.1 -432 0L0 0Z" fill="#6777c7"></path></g><g transform="translate(0, 3840)"><path d="M0 -2160C148.9 -1986.9 297.7 -1813.9 473.1 -1765.7C648.5 -1717.6 850.5 -1794.3 1012 -1752.8C1173.5 -1711.4 1294.4 -1551.7 1413.5 -1413.5C1532.6 -1275.3 1649.8 -1158.7 1771.9 -1023C1894 -887.3 2020.9 -732.7 2086.4 -559C2151.9 -385.4 2155.9 -192.7 2160 0L0 0Z" fill="#ededf8"></path><path d="M0 -1728C119.1 -1589.5 238.2 -1451.1 378.5 -1412.6C518.8 -1374 680.4 -1435.4 809.6 -1402.3C938.8 -1369.1 1035.5 -1241.3 1130.8 -1130.8C1226.1 -1020.3 1319.8 -926.9 1417.5 -818.4C1515.2 -709.9 1616.7 -586.2 1669.1 -447.2C1721.5 -308.3 1724.8 -154.2 1728 0L0 0Z" fill="#c8caea"></path><path d="M0 -1296C89.3 -1192.2 178.6 -1088.3 283.9 -1059.4C389.1 -1030.5 510.3 -1076.6 607.2 -1051.7C704.1 -1026.8 776.7 -931 848.1 -848.1C919.6 -765.2 989.9 -695.2 1063.1 -613.8C1136.4 -532.4 1212.5 -439.6 1251.8 -335.4C1291.1 -231.2 1293.6 -115.6 1296 0L0 0Z" fill="#a3a8dc"></path><path d="M0 -864C59.5 -794.8 119.1 -725.5 189.2 -706.3C259.4 -687 340.2 -717.7 404.8 -701.1C469.4 -684.5 517.8 -620.7 565.4 -565.4C613 -510.1 659.9 -463.5 708.8 -409.2C757.6 -354.9 808.4 -293.1 834.6 -223.6C860.8 -154.2 862.4 -77.1 864 0L0 0Z" fill="#7c87ce"></path><path d="M0 -432C29.8 -397.4 59.5 -362.8 94.6 -353.1C129.7 -343.5 170.1 -358.9 202.4 -350.6C234.7 -342.3 258.9 -310.3 282.7 -282.7C306.5 -255.1 330 -231.7 354.4 -204.6C378.8 -177.5 404.2 -146.5 417.3 -111.8C430.4 -77.1 431.2 -38.5 432 0L0 0Z" fill="#6777c7"></path></g></svg>