<svg id="visual" viewBox="0 0 3840 2880" width="3840" height="2880" xmlns="http://www.w3.org/2000/svg" xmlns:xlink="http://www.w3.org/1999/xlink" version="1.1"><rect x="0" y="0" width="3840" height="2880" fill="#ffffff"></rect><defs><linearGradient id="grad1_0" x1="25%" y1="0%" x2="100%" y2="100%"><stop offset="23.333333333333336%" stop-color="#6777c7" stop-opacity="1"></stop><stop offset="76.66666666666666%" stop-color="#6777c7" stop-opacity="1"></stop></linearGradient></defs><defs><linearGradient id="grad1_1" x1="25%" y1="0%" x2="100%" y2="100%"><stop offset="23.333333333333336%" stop-color="#6777c7" stop-opacity="1"></stop><stop offset="76.66666666666666%" stop-color="#8890d3" stop-opacity="1"></stop></linearGradient></defs><defs><linearGradient id="grad1_2" x1="25%" y1="0%" x2="100%" y2="100%"><stop offset="23.333333333333336%" stop-color="#a7abde" stop-opacity="1"></stop><stop offset="76.66666666666666%" stop-color="#8890d3" stop-opacity="1"></stop></linearGradient></defs><defs><linearGradient id="grad1_3" x1="25%" y1="0%" x2="100%" y2="100%"><stop offset="23.333333333333336%" stop-color="#a7abde" stop-opacity="1"></stop><stop offset="76.66666666666666%" stop-color="#c4c6e9" stop-opacity="1"></stop></linearGradient></defs><defs><linearGradient id="grad1_4" x1="25%" y1="0%" x2="100%" y2="100%"><stop offset="23.333333333333336%" stop-color="#e2e2f4" stop-opacity="1"></stop><stop offset="76.66666666666666%" stop-color="#c4c6e9" stop-opacity="1"></stop></linearGradient></defs><defs><linearGradient id="grad1_5" x1="25%" y1="0%" x2="100%" y2="100%"><stop offset="23.333333333333336%" stop-color="#e2e2f4" stop-opacity="1"></stop><stop offset="76.66666666666666%" stop-color="#ffffff" stop-opacity="1"></stop></linearGradient></defs><defs><linearGradient id="grad2_0" x1="0%" y1="0%" x2="75%" y2="100%"><stop offset="23.333333333333336%" stop-color="#6777c7" stop-opacity="1"></stop><stop offset="76.66666666666666%" stop-color="#6777c7" stop-opacity="1"></stop></linearGradient></defs><defs><linearGradient id="grad2_1" x1="0%" y1="0%" x2="75%" y2="100%"><stop offset="23.333333333333336%" stop-color="#8890d3" stop-opacity="1"></stop><stop offset="76.66666666666666%" stop-color="#6777c7" stop-opacity="1"></stop></linearGradient></defs><defs><linearGradient id="grad2_2" x1="0%" y1="0%" x2="75%" y2="100%"><stop offset="23.333333333333336%" stop-color="#8890d3" stop-opacity="1"></stop><stop offset="76.66666666666666%" stop-color="#a7abde" stop-opacity="1"></stop></linearGradient></defs><defs><linearGradient id="grad2_3" x1="0%" y1="0%" x2="75%" y2="100%"><stop offset="23.333333333333336%" stop-color="#c4c6e9" stop-opacity="1"></stop><stop offset="76.66666666666666%" stop-color="#a7abde" stop-opacity="1"></stop></linearGradient></defs><defs><linearGradient id="grad2_4" x1="0%" y1="0%" x2="75%" y2="100%"><stop offset="23.333333333333336%" stop-color="#c4c6e9" stop-opacity="1"></stop><stop offset="76.66666666666666%" stop-color="#e2e2f4" stop-opacity="1"></stop></linearGradient></defs><defs><linearGradient id="grad2_5" x1="0%" y1="0%" x2="75%" y2="100%"><stop offset="23.333333333333336%" stop-color="#ffffff" stop-opacity="1"></stop><stop offset="76.66666666666666%" stop-color="#e2e2f4" stop-opacity="1"></stop></linearGradient></defs><g transform="translate(3840, 0)"><path d="M0 2400C-420.4 2337.6 -840.7 2275.2 -1200 2078.5C-1559.3 1881.8 -1857.5 1550.8 -2047.3 1182C-2237.1 813.2 -2318.6 406.6 -2400 0L0 0Z" fill="#f0f1fa"></path><path d="M0 2000C-350.3 1948 -700.6 1896 -1000 1732.1C-1299.4 1568.1 -1547.9 1292.3 -1706.1 985C-1864.3 677.7 -1932.1 338.8 -2000 0L0 0Z" fill="#d3d4ef"></path><path d="M0 1600C-280.2 1558.4 -560.5 1516.8 -800 1385.6C-1039.5 1254.5 -1238.3 1033.9 -1364.9 788C-1491.4 542.1 -1545.7 271.1 -1600 0L0 0Z" fill="#b6b8e3"></path><path d="M0 1200C-210.2 1168.8 -420.4 1137.6 -600 1039.2C-779.6 940.9 -928.7 775.4 -1023.6 591C-1118.6 406.6 -1159.3 203.3 -1200 0L0 0Z" fill="#989ed8"></path><path d="M0 800C-140.1 779.2 -280.2 758.4 -400 692.8C-519.8 627.3 -619.2 516.9 -682.4 394C-745.7 271.1 -772.9 135.5 -800 0L0 0Z" fill="#7884cd"></path><path d="M0 400C-70.1 389.6 -140.1 379.2 -200 346.4C-259.9 313.6 -309.6 258.5 -341.2 197C-372.9 135.5 -386.4 67.8 -400 0L0 0Z" fill="#6777c7"></path></g><g transform="translate(0, 2880)"><path d="M0 -2400C487.1 -2376.1 974.2 -2352.2 1200 -2078.5C1425.8 -1804.7 1390.3 -1281.1 1546.7 -893C1703.2 -504.9 2051.6 -252.5 2400 0L0 0Z" fill="#f0f1fa"></path><path d="M0 -2000C405.9 -1980.1 811.8 -1960.2 1000 -1732.1C1188.2 -1503.9 1158.6 -1067.5 1288.9 -744.2C1419.3 -420.8 1709.7 -210.4 2000 0L0 0Z" fill="#d3d4ef"></path><path d="M0 -1600C324.7 -1584.1 649.5 -1568.2 800 -1385.6C950.5 -1203.1 926.8 -854 1031.1 -595.3C1135.4 -336.6 1367.7 -168.3 1600 0L0 0Z" fill="#b6b8e3"></path><path d="M0 -1200C243.6 -1188.1 487.1 -1176.1 600 -1039.2C712.9 -902.3 695.1 -640.5 773.4 -446.5C851.6 -252.5 1025.8 -126.2 1200 0L0 0Z" fill="#989ed8"></path><path d="M0 -800C162.4 -792 324.7 -784.1 400 -692.8C475.3 -601.6 463.4 -427 515.6 -297.7C567.7 -168.3 683.9 -84.2 800 0L0 0Z" fill="#7884cd"></path><path d="M0 -400C81.2 -396 162.4 -392 200 -346.4C237.6 -300.8 231.7 -213.5 257.8 -148.8C283.9 -84.2 341.9 -42.1 400 0L0 0Z" fill="#6777c7"></path></g></svg>